<svg width="124" height="40" viewBox="0 0 124 40" fill="none" xmlns="http://www.w3.org/2000/svg">
<path d="M62.7188 12.918V22.1562C62.7188 23.1393 62.5007 24.028 62.0645 24.8223C61.6348 25.61 60.9805 26.235 60.1016 26.6973C59.2292 27.1595 58.1289 27.3906 56.8008 27.3906C54.9128 27.3906 53.474 26.9089 52.4844 25.9453C51.4948 24.9818 51 23.7057 51 22.1172V12.918H54.0176V21.6582C54.0176 22.8366 54.2585 23.6634 54.7402 24.1387C55.222 24.6139 55.9349 24.8516 56.8789 24.8516C57.543 24.8516 58.0801 24.7376 58.4902 24.5098C58.9069 24.2819 59.2129 23.9303 59.4082 23.4551C59.6035 22.9798 59.7012 22.3743 59.7012 21.6387V12.918H62.7188Z" fill="black"/>
<path d="M72.1816 16.0723C73.347 16.0723 74.2845 16.3913 74.9941 17.0293C75.7038 17.6608 76.0586 18.6764 76.0586 20.0762V27.1953H73.0801V20.8184C73.0801 20.0371 72.9368 19.4479 72.6504 19.0508C72.3704 18.6536 71.9277 18.4551 71.3223 18.4551C70.4108 18.4551 69.7891 18.7643 69.457 19.3828C69.125 20.0013 68.959 20.8932 68.959 22.0586V27.1953H65.9805V16.2773H68.2559L68.6562 17.6738H68.8223C69.0566 17.2962 69.3464 16.9902 69.6914 16.7559C70.043 16.5215 70.4303 16.349 70.8535 16.2383C71.2832 16.1276 71.7259 16.0723 72.1816 16.0723Z" fill="black"/>
<path d="M82.1035 16.2773V27.1953H79.125V16.2773H82.1035ZM80.6191 12C81.0618 12 81.4427 12.1042 81.7617 12.3125C82.0807 12.5143 82.2402 12.8952 82.2402 13.4551C82.2402 14.0085 82.0807 14.3926 81.7617 14.6074C81.4427 14.8158 81.0618 14.9199 80.6191 14.9199C80.1699 14.9199 79.7858 14.8158 79.4668 14.6074C79.1543 14.3926 78.998 14.0085 78.998 13.4551C78.998 12.8952 79.1543 12.5143 79.4668 12.3125C79.7858 12.1042 80.1699 12 80.6191 12Z" fill="black"/>
<path d="M97.1719 27.1953H94.1543V21.0332H88.5V27.1953H85.4727V12.918H88.5V18.5137H94.1543V12.918H97.1719V27.1953Z" fill="black"/>
<path d="M110.57 16.2773V27.1953H108.285L107.885 25.7988H107.729C107.494 26.1699 107.201 26.4727 106.85 26.707C106.498 26.9414 106.111 27.1139 105.688 27.2246C105.264 27.3353 104.825 27.3906 104.369 27.3906C103.588 27.3906 102.908 27.2539 102.328 26.9805C101.749 26.7005 101.296 26.2676 100.971 25.6816C100.652 25.0957 100.492 24.334 100.492 23.3965V16.2773H103.471V22.6543C103.471 23.4355 103.611 24.0247 103.891 24.4219C104.171 24.819 104.617 25.0176 105.229 25.0176C105.834 25.0176 106.309 24.8809 106.654 24.6074C106.999 24.3275 107.24 23.9206 107.377 23.3867C107.52 22.8464 107.592 22.1888 107.592 21.4141V16.2773H110.57Z" fill="black"/>
<path d="M116.674 12V15.5352C116.674 15.9453 116.661 16.3522 116.635 16.7559C116.615 17.1595 116.589 17.472 116.557 17.6934H116.674C116.96 17.2441 117.351 16.8633 117.846 16.5508C118.34 16.2318 118.982 16.0723 119.77 16.0723C120.993 16.0723 121.986 16.5508 122.748 17.5078C123.51 18.4648 123.891 19.8678 123.891 21.7168C123.891 22.9603 123.715 24.0052 123.363 24.8516C123.012 25.6914 122.52 26.3262 121.889 26.7559C121.257 27.179 120.525 27.3906 119.691 27.3906C118.891 27.3906 118.259 27.2474 117.797 26.9609C117.335 26.6745 116.96 26.3522 116.674 25.9941H116.469L115.971 27.1953H113.695V12H116.674ZM118.812 18.4551C118.292 18.4551 117.878 18.5625 117.572 18.7773C117.266 18.9922 117.042 19.3145 116.898 19.7441C116.762 20.1738 116.687 20.7174 116.674 21.375V21.6973C116.674 22.7585 116.83 23.5723 117.143 24.1387C117.455 24.6986 118.025 24.9785 118.852 24.9785C119.464 24.9785 119.949 24.6953 120.307 24.1289C120.671 23.5625 120.854 22.7454 120.854 21.6777C120.854 20.61 120.671 19.806 120.307 19.2656C119.942 18.7253 119.444 18.4551 118.812 18.4551Z" fill="black"/>
<circle cx="20" cy="20" r="20" fill="#5474B4"/>
<path d="M25.7188 13V22.2383C25.7188 23.2214 25.5007 24.11 25.0645 24.9043C24.6348 25.6921 23.9805 26.3171 23.1016 26.7793C22.2292 27.2415 21.1289 27.4727 19.8008 27.4727C17.9128 27.4727 16.474 26.9909 15.4844 26.0273C14.4948 25.0638 14 23.7878 14 22.1992V13H17.0176V21.7402C17.0176 22.9186 17.2585 23.7454 17.7402 24.2207C18.222 24.696 18.9349 24.9336 19.8789 24.9336C20.543 24.9336 21.0801 24.8197 21.4902 24.5918C21.9069 24.3639 22.2129 24.0124 22.4082 23.5371C22.6035 23.0618 22.7012 22.4564 22.7012 21.7207V13H25.7188Z" fill="white"/>
</svg>
